<svg id="Capa_1" data-name="Capa 1" xmlns="http://www.w3.org/2000/svg" viewBox="0 0 54 54">
  <defs>
    <style>
      .cls-1 {
        fill: #3D3DF4;
      }
    </style>
  </defs>
  <title>Tavola disegno 1</title>
  <path class="cls-1" d="M51,34.53,45.42,8.36C44.55,4.5,41.51,1.69,38,1.52a7.56,7.56,0,0,0-5.85,2.37,8.9,8.9,0,0,0-2.45,6.22v7.21H24.06V10.11a8.9,8.9,0,0,0-2.45-6.22,7.56,7.56,0,0,0-5.85-2.37c-3.49.17-6.53,3-7.4,6.84L2.79,34.53a11.33,11.33,0,1,0,21.24,6,.7.7,0,0,0,0-.14V31.49h5.66V40.4c0,.05,0,.09,0,.13a11.33,11.33,0,1,0,21.24-6ZM12.72,49.43A9.44,9.44,0,0,1,4.55,35.26c.18-.3.37-.58.57-.86l.15-.2a9.61,9.61,0,0,1,1.62-1.63l.16-.12a9.12,9.12,0,0,1,.82-.56L8,31.8a9.34,9.34,0,0,1,2.13-.9l.22-.06c.3-.07.6-.13.91-.18l.28,0a8.77,8.77,0,0,1,1.15-.08A9.46,9.46,0,0,1,22.17,40c0,.08,0,.15,0,.23v.15h0A9.45,9.45,0,0,1,12.72,49.43ZM21.39,32.7c-.07-.09-.15-.17-.23-.26s-.41-.45-.64-.66l-.31-.29c-.22-.19-.45-.37-.68-.54l-.32-.25c-.31-.21-.62-.41-.94-.59a.57.57,0,0,1-.13-.08A11.79,11.79,0,0,0,17,29.5l-.35-.13c-.29-.11-.57-.2-.87-.29L15.35,29a8.93,8.93,0,0,0-.9-.17c-.13,0-.26-.05-.4-.06a11.72,11.72,0,0,0-1.33-.09,9.59,9.59,0,0,0-1.07.06l-.43.05-.6.09-.53.12-.46.12c-.19.06-.38.11-.57.18l-.39.14c-.19.08-.38.15-.57.24l-.35.17c-.19.09-.38.18-.57.29l-.31.18-.55.35-.14.11c-.22.15-.43.31-.64.47L10.2,8.84a6.43,6.43,0,0,1,5.65-5.27A5.66,5.66,0,0,1,20.3,5.38a6.75,6.75,0,0,1,1.87,4.73V33.73l0,0A11.7,11.7,0,0,0,21.39,32.7Zm2.67-3.11V19.2h5.66V29.59Zm7.55,4.14V10.11a6.79,6.79,0,0,1,1.87-4.74,5.78,5.78,0,0,1,4.17-1.81h.28a6.43,6.43,0,0,1,5.65,5.27l4.66,22.38a10.61,10.61,0,0,0-1.36-.94,2.61,2.61,0,0,0-.28-.17c-.19-.11-.38-.2-.58-.3l-.33-.16c-.19-.09-.39-.16-.59-.24l-.38-.14q-.28-.11-.57-.18L43.69,29l-.53-.12-.6-.09-.43-.05a9.46,9.46,0,0,0-1.07-.06,9.8,9.8,0,0,0-1.33.09l-.4.06c-.3,0-.6.1-.9.17l-.43.11c-.29.08-.58.18-.87.29l-.35.12a11.87,11.87,0,0,0-1.14.54l-.13.08c-.32.18-.63.38-.94.59l-.32.24c-.23.18-.46.36-.67.55l-.32.29c-.22.21-.43.43-.64.66s-.16.17-.23.26a9.19,9.19,0,0,0-.75,1Zm9.45,15.7a9.45,9.45,0,0,1-9.43-9.06h0v-.15c0-.08,0-.15,0-.22a9.46,9.46,0,0,1,9.45-9.45,8.77,8.77,0,0,1,1.15.08l.29,0c.3.05.6.11.9.19l.23,0a10.24,10.24,0,0,1,2.13.9l.14.09a9.43,9.43,0,0,1,.84.56l.15.12a9,9,0,0,1,1.62,1.64l.15.19a10,10,0,0,1,.57.87A9.34,9.34,0,0,1,50.5,40,9.45,9.45,0,0,1,41.06,49.43Z" />
  <path class="cls-1" d="M37.65,1.51H38c3.49.17,6.53,3,7.4,6.84L51,34.53a11.33,11.33,0,1,1-21.24,6s0-.08,0-.13V31.49H24.06V40.4a.7.7,0,0,1,0,.14,11.33,11.33,0,1,1-21.24-6L8.36,8.36c.87-3.86,3.91-6.67,7.4-6.84h.38a7.56,7.56,0,0,1,5.47,2.38,8.9,8.9,0,0,1,2.45,6.22v7.21h5.66V10.11a8.9,8.9,0,0,1,2.45-6.22,7.58,7.58,0,0,1,5.48-2.38M5.54,31.22c.21-.16.42-.32.64-.47l.14-.11.55-.35.31-.18c.19-.11.38-.2.57-.29l.35-.17c.19-.09.38-.16.57-.24l.39-.14c.19-.07.38-.12.57-.18l.46-.12.53-.12.6-.09.43-.05a9.59,9.59,0,0,1,1.07-.06,11.72,11.72,0,0,1,1.33.09c.14,0,.27,0,.4.06a8.93,8.93,0,0,1,.9.17l.43.11c.3.09.58.18.87.29l.35.13a11.79,11.79,0,0,1,1.14.53.57.57,0,0,0,.13.08c.32.18.63.38.94.59l.32.25c.23.17.46.35.68.54l.31.29c.23.21.44.44.64.66s.16.17.23.26a11.7,11.7,0,0,1,.75,1l0,0V10.11A6.75,6.75,0,0,0,20.3,5.38a5.69,5.69,0,0,0-4.13-1.82h-.32A6.43,6.43,0,0,0,10.2,8.84L5.54,31.22m26.07,2.51,0,0a9.19,9.19,0,0,1,.75-1c.07-.09.15-.17.23-.26s.42-.45.64-.66l.32-.29c.21-.19.44-.37.67-.55l.32-.24c.31-.21.62-.41.94-.59l.13-.08a11.87,11.87,0,0,1,1.14-.54l.35-.12c.29-.11.58-.21.87-.29l.43-.11c.3-.07.6-.13.9-.17l.4-.06a9.8,9.8,0,0,1,1.33-.09,9.46,9.46,0,0,1,1.07.06l.43.05.6.09.53.12.46.12q.29.07.57.18l.38.14c.2.08.4.15.59.24l.33.16c.2.1.39.19.58.3a2.61,2.61,0,0,1,.28.17,10.61,10.61,0,0,1,1.36.94L43.58,8.84a6.43,6.43,0,0,0-5.65-5.27h-.28a5.78,5.78,0,0,0-4.17,1.81,6.79,6.79,0,0,0-1.87,4.74V33.73m-7.55-4.14h5.66V19.2H24.06V29.59M12.72,49.43a9.45,9.45,0,0,0,9.43-9.06h0v-.15c0-.08,0-.15,0-.23a9.46,9.46,0,0,0-9.45-9.44,8.77,8.77,0,0,0-1.15.08l-.28,0c-.31.05-.61.11-.91.18l-.22.06A9.34,9.34,0,0,0,8,31.8l-.16.09a9.12,9.12,0,0,0-.82.56l-.16.12A9.61,9.61,0,0,0,5.27,34.2l-.15.2c-.2.28-.39.56-.57.86a9.44,9.44,0,0,0,8.17,14.17m28.34,0A9.45,9.45,0,0,0,50.5,40a9.34,9.34,0,0,0-1.27-4.72,10,10,0,0,0-.57-.87l-.15-.19a9,9,0,0,0-1.62-1.64l-.15-.12a9.43,9.43,0,0,0-.84-.56l-.14-.09a10.24,10.24,0,0,0-2.13-.9l-.23,0c-.3-.08-.6-.14-.9-.19l-.29,0a8.77,8.77,0,0,0-1.15-.08A9.46,9.46,0,0,0,31.61,40c0,.07,0,.14,0,.22v.15h0a9.45,9.45,0,0,0,9.43,9.06M37.65.76a8.32,8.32,0,0,0-6,2.61A9.62,9.62,0,0,0,29,10.11v6.46H24.81V10.11a9.66,9.66,0,0,0-2.66-6.74,8.34,8.34,0,0,0-6-2.61h-.41C11.9,1,8.57,4,7.63,8.19L2.08,34.27a12.08,12.08,0,1,0,22.69,6.37.57.57,0,0,0,0-.24V32.24H29V40.4a.7.7,0,0,0,0,.24A12.07,12.07,0,1,0,51.7,34.27L46.15,8.2C45.21,4,41.88,1,38.06.77Zm-31,28.79L10.93,9a5.68,5.68,0,0,1,5-4.68h.29A5,5,0,0,1,19.76,5.9a6,6,0,0,1,1.66,4.21V31.62c-.13-.14-.25-.26-.38-.38l-.34-.31a8.67,8.67,0,0,0-.72-.58l-.09-.07-.25-.19c-.33-.23-.67-.44-1-.63l-.13-.09c-.37-.2-.77-.38-1.21-.57L17,28.71l-.12-.05q-.48-.18-.93-.3l-.46-.12c-.3-.07-.62-.13-.95-.18l-.12,0L14.13,28a12,12,0,0,0-1.41-.09q-.54,0-1.14.06l-.32,0-.14,0-.64.1-.52.11-.54.14-.6.19-.41.15L7.79,29l-.31.16-.06,0,0,0-.56.28-.15.1Zm25.7,2.07V10.11A6,6,0,0,1,34,5.9a5,5,0,0,1,3.63-1.59h.24a5.67,5.67,0,0,1,5,4.69l4.27,20.54a1.19,1.19,0,0,0-.15-.09c-.19-.11-.39-.21-.59-.31l-.12-.06L46,29l-.62-.25-.4-.15-.61-.19-.5-.13-.56-.12-.6-.1-.17,0-.33,0c-.41,0-.78-.06-1.14-.06a12.16,12.16,0,0,0-1.42.09l-.3.05-.13,0c-.33.05-.64.11-1,.18l-.46.12c-.3.08-.6.18-.93.3l-.12,0-.25.1a12.8,12.8,0,0,0-1.22.57l-.1.07c-.37.21-.71.42-1,.65l-.28.21-.07.05c-.24.19-.49.38-.71.58l-.34.31-.38.38ZM24.81,19.2Zm0,.75H29v8.89H24.81V20ZM12.72,48.68a8.69,8.69,0,0,1-7.52-13c.16-.26.33-.53.52-.79l.14-.19a8.81,8.81,0,0,1,1.49-1.5l.07,0L7.51,33a7.52,7.52,0,0,1,.75-.5l.06,0,.08,0a9,9,0,0,1,2-.83l.16,0h.05c.26-.07.54-.12.83-.17h.08l.18,0a8.29,8.29,0,0,1,1.06-.07A8.71,8.71,0,0,1,21.42,40a.15.15,0,0,1,0,.07v.38h0a8.65,8.65,0,0,1-8.67,8.24Zm19.66-8.31h0v-.3s0-.05,0-.07a8.71,8.71,0,0,1,8.7-8.7,8.18,8.18,0,0,1,1.06.07l.18,0h.08c.29.05.57.1.83.17l.09,0,.12,0a9,9,0,0,1,2,.83l.06,0,.09,0a9,9,0,0,1,.75.51l.08.06.06,0a8.25,8.25,0,0,1,1.5,1.51s.09.11.14.17a9.18,9.18,0,0,1,.52.81A8.62,8.62,0,0,1,49.75,40a8.69,8.69,0,0,1-17.37.38Z" />
</svg>