<svg id="Livello_1" data-name="Livello 1" xmlns="http://www.w3.org/2000/svg" viewBox="0 0 450.32 450.66">
  <defs>
    <style>
      .cls-1 {
        fill: #1d1d1d;
      }
    </style>
  </defs>
  <title>bianco4</title>
  <path class="cls-1" d="M288.83,450.46q-63.6,0-127.21,0c-20.9,0-34.05-13.22-34.05-34.17q0-126.72,0-253.45c0-21.63,13-34.69,34.52-34.69q127.22,0,254.42,0c20.38,0,33.75,13.12,33.77,33.45q.09,127.69,0,255.38c0,20.33-13.39,33.47-33.76,33.48Q352.68,450.49,288.83,450.46ZM160.44,417.58h257V161.11h-257Z" />
  <path class="cls-1" d="M384.75,116.33H353.27V95.88H95.78V342.35h19.84V374.2c-9.5,0-19.13,1.21-28.31-.28-14.46-2.36-24.52-15.36-24.54-30.05q-.14-124.8,0-249.61c0-17.18,13.49-30.63,30.65-31.08,11.92-.32,23.86-.11,35.79-.11q111.49,0,223,0c16.5,0,30,9.81,32.26,24.87C385.86,97.05,384.75,106.52,384.75,116.33Z" />
  <path class="cls-1" d="M289.17,342.14H383c6.32,0,6.49.18,6.5,6.54q0,10.14,0,20.3c0,6.28-.29,6.58-6.51,6.58H244.22c-16.6,0-33.2-.12-49.79.07-4.63.05-6.29-1.46-6.05-6.17.36-7.07.34-14.19,0-21.26-.22-4.66,1.35-6.18,6-6.15C226,342.22,257.59,342.14,289.17,342.14Z" />
  <path class="cls-1" d="M267.69,306.12H196.08c-7.61,0-7.61,0-7.61-7.83,0-6.46,0-12.91,0-19.36,0-6,.25-6.25,6.28-6.25h128.7c6.12,0,12.26.13,18.38,0,3.81-.11,5.14,1.51,5.06,5.2-.16,7.58-.19,15.17,0,22.74.11,4.2-1.48,5.64-5.68,5.61C316.72,306.05,292.2,306.12,267.69,306.12Z" />
  <path class="cls-1" d="M224.81,236.56c-10.15,0-20.31-.16-30.46.08-4.32.11-6.16-1.07-6-5.69.32-7.4.25-14.83,0-22.24-.12-3.92,1.12-5.47,5.2-5.45q31.44.21,62.88,0c4.07,0,5.37,1.54,5.28,5.43-.19,7.41-.25,14.84,0,22.24.17,4.57-1.68,5.82-6,5.72C245.45,236.39,235.13,236.56,224.81,236.56Z" />
  <path class="cls-1" d="M321.81,53.39H290.32V32.93H32.84V279.4H52.67v31.85c-9.5,0-19.12,1.22-28.31-.28C9.9,308.62-.16,295.61-.17,280.92q-.15-124.8,0-249.6C-.12,14.13,13.34.69,30.5.23,42.42-.09,54.36.12,66.29.12q111.51,0,223,0c16.5,0,30,9.81,32.26,24.87C322.91,34.1,321.81,43.57,321.81,53.39Z" />
</svg>