<?xml version="1.0" encoding="UTF-8" standalone="no"?>
<svg
   width="62"
   height="52"
   style="overflow: visible;"
   viewBox="0 0 512 512"
   data-svgdocument=""
   id="_EoRZEoob7T3OqVCLDHCeT"
   class="fl-svgdocument"
   x="0"
   y="0"
   version="1.1"
   sodipodi:docname="logo3.svg"
   inkscape:version="1.1.1 (eb90963e84, 2021-10-02)"
   xmlns:inkscape="http://www.inkscape.org/namespaces/inkscape"
   xmlns:sodipodi="http://sodipodi.sourceforge.net/DTD/sodipodi-0.dtd"
   xmlns="http://www.w3.org/2000/svg"
   xmlns:svg="http://www.w3.org/2000/svg"><sodipodi:namedview
   id="namedview18"
   pagecolor="#505050"
   bordercolor="#eeeeee"
   borderopacity="1"
   inkscape:pageshadow="0"
   inkscape:pageopacity="0"
   inkscape:pagecheckerboard="0"
   showgrid="false"
   inkscape:zoom="6.2586213"
   inkscape:cx="-3.2754818"
   inkscape:cy="19.573001"
   inkscape:window-width="1366"
   inkscape:window-height="731"
   inkscape:window-x="0"
   inkscape:window-y="0"
   inkscape:window-maximized="1"
   inkscape:current-layer="_EoRZEoob7T3OqVCLDHCeT" />
<defs
   id="_SD5wNixw_MtXfKJjKHLtq"
   transform="matrix(0.7388237947591995, 0, 0, 0.7388237947591995, -52.523220553888315, 182.36680387751528)"
   data-uid="o_eldmd1n73_6" />

Fichier 63<defs
   id="_1wcjFZmyq_5wjnS9y7DLT"
   transform="matrix(1.0331834554672241, 0, 0, 1.0331834554672241, -97.68428802490234, 111.68942260742188)"
   data-uid="o_eldmd1n73_246" />
<defs
   id="_p9WucsL8EOdJO-7h8Njul"
   transform="matrix(0.6562942266464233, 0, 0, 0.6562942266464233, -78.99724578857422, 130.1909637451172)"
   data-uid="o_eldmd1n73_275" />
<rect
   style="fill:#195bff;stroke-width:27.7853;stroke-linecap:round;stroke-linejoin:round;stroke-opacity:0.988235;paint-order:markers fill stroke;fill-opacity:1"
   id="rect38"
   width="608.38263"
   height="491.8891"
   x="-48.364182"
   y="10.655068"
   ry="131.23199" />
<g
   fill="#3d3df4"
   transform="matrix(0.88805832,0,0,0.93521255,29.426711,2.6408066)"
   data-uid="o_eldmd1n73_326"
   id="g13"
   style="fill:#ffffff;fill-opacity:1">
  <path
     fill-rule="evenodd"
     clip-rule="evenodd"
     d="m 81.944,398.049 c -6.243,-6.243 -6.243,-16.376 0,-22.618 l 45.257,-45.257 c 6.246,-6.265 16.375,-6.265 22.621,0 6.246,6.242 6.246,16.375 0,22.617 l -45.257,45.258 c -6.247,6.248 -16.375,6.248 -22.621,0 z m 325.487,0 -45.257,-45.258 c -6.241,-6.242 -6.241,-16.375 0,-22.617 6.25,-6.265 16.374,-6.265 22.625,0 l 45.258,45.257 c 6.24,6.242 6.24,16.375 0,22.618 -6.251,6.248 -16.377,6.248 -22.626,0 z M 493.586,157.255 301.254,333.588 c -24.993,24.993 -65.516,24.993 -90.511,0 l -112.847,-112.85 -7.214,-7.21 -30.815,-30.82 -0.117,0.04 c -2.918,-3.649 -7.079,-6.758 -11.743,-6.758 -8.843,0 -16.004,7.165 -16.004,16 v 45.077 18.937 159.983 c 0,17.687 14.324,32.005 32.004,32.005 h 383.986 c 17.68,0 31.998,-14.318 31.998,-32.005 v -191.99 c 0,-8.844 7.165,-16 16.009,-16 8.837,0 16,7.157 16,16 v 191.99 c 0,35.35 -28.664,64.014 -64.007,64.014 H 64.007 C 28.66,480 0,451.336 0,415.986 V 191.99 c 0,-26.5 21.5,-47.985 48.007,-47.985 12.352,0 23.5,5.649 32.003,13.845 v -0.274 l 153.369,153.373 c 12.489,12.509 32.75,12.509 45.242,0 L 470.944,134.616 c 6.267,-6.242 9.273,-14.438 9.235,-22.617 h -0.188 c 0,-17.679 -14.318,-16 -31.998,-16 H 111.998 c -8.824,0 -16.003,-7.164 -16.003,-16.008 0,-8.835 7.179,-16 16.003,-16 h 335.995 c 29.351,0 54.045,8.789 61.577,32.007 v 0 c 5.46,21.228 0.632,44.648 -15.984,61.257 z M 48.007,95.999 c -8.843,0 -16.004,-7.164 -16.004,-16.008 0,-8.835 7.161,-16 16.004,-16 8.84,0 16,7.164 16,16 0,8.844 -7.16,16.008 -16,16.008 z"
     fill="#3d3df4"
     data-uid="o_eldmd1n73_324"
     id="path11"
     style="fill:#ffffff;fill-opacity:1" />
</g>
</svg>
